<!-- Generator: Adobe Illustrator 18.0.0, SVG Export Plug-In  -->
<svg version="1.1"
	 xmlns="http://www.w3.org/2000/svg" xmlns:xlink="http://www.w3.org/1999/xlink" xmlns:a="http://ns.adobe.com/AdobeSVGViewerExtensions/3.0/"
	 x="0px" y="0px" width="92.5px" height="108.6px" viewBox="0 0 92.5 108.6" enable-background="new 0 0 92.5 108.6"
	 xml:space="preserve">
<defs>
</defs>
<path fill="none" stroke="#FF4539" stroke-width="4" stroke-miterlimit="10" d="M85,52.8C90.2,17.1,69.5,2,46.3,2
	C23,2,1.7,17,7.4,52.7C4.1,55.4,2,60.1,2,65.7c0,7.5,7.2,14,12.8,16c5.2,17.4,24.3,24.8,31.5,24.8c7.1,0,26.1-7.4,31.4-24.7
	c6.2-2,12.8-9,12.8-16.2C90.5,60.3,88.3,55.6,85,52.8z M68.9,38.1L68.9,38.1L47.4,69.7c-0.8,1.1-2,1.9-3.2,1.9
	c-1.2,0-2.5-0.7-3.4-1.5L25.8,55c-1-1-1-2.7,0-3.7l3.7-3.7c1-1,2.7-1,3.7,0l9.8,9.8l17.1-25.2c0.8-1.2,2.5-1.5,3.7-0.7l4.4,3
	C69.4,35.2,69.7,36.9,68.9,38.1z"/>
</svg>
