<!-- Generator: Adobe Illustrator 18.0.0, SVG Export Plug-In  -->
<svg version="1.1"
	 xmlns="http://www.w3.org/2000/svg" xmlns:xlink="http://www.w3.org/1999/xlink" xmlns:a="http://ns.adobe.com/AdobeSVGViewerExtensions/3.0/"
	 x="0px" y="0px" width="93.9px" height="110.3px" viewBox="0 0 93.9 110.3" enable-background="new 0 0 93.9 110.3"
	 xml:space="preserve">
<defs>
</defs>
<g>
	<path fill="none" stroke="#FF4539" stroke-width="4" stroke-miterlimit="10" d="M86.3,53.6C91.6,17.3,70.6,2,47,2
		C23.4,2,1.7,17.2,7.5,53.5C4.2,56.2,2,61,2,66.7C2,74.4,9.3,80.9,15,83c5.3,17.7,24.7,25.2,32,25.2c7.2,0,26.5-7.5,31.9-25.1
		c6.3-2,13-9.2,13-16.4C91.9,61.2,89.7,56.4,86.3,53.6z M47,76.9c-3,0-5.4-2.4-5.4-5.4c0-3,2.4-5.4,5.4-5.4s5.4,2.4,5.4,5.4
		C52.3,74.5,49.9,76.9,47,76.9z M51.1,59.4h-8.6c0-11.7,10.2-12.6,10.2-18.7c0-3.8-2.5-6-5.6-6c-4.1,0-6.8,1.6-6.8,8.2h-9.7
		c0-11,8.1-16.6,16.5-16.6c9.8,0,16.4,5.2,16.4,13.4C63.5,51.4,51.1,49.8,51.1,59.4z"/>
</g>
</svg>
