<!-- Generator: Adobe Illustrator 18.0.0, SVG Export Plug-In  -->
<svg version="1.1"
	 xmlns="http://www.w3.org/2000/svg" xmlns:xlink="http://www.w3.org/1999/xlink" xmlns:a="http://ns.adobe.com/AdobeSVGViewerExtensions/3.0/"
	 x="0px" y="0px" width="96.1px" height="96.1px" viewBox="0 0 96.1 96.1" enable-background="new 0 0 96.1 96.1"
	 xml:space="preserve">
<defs>
</defs>
<path fill="#FF4539" d="M95.7,83.3L90.4,78c0,0-0.1,0-0.1-0.1c0,0,0-0.1-0.1-0.1L59.4,47l24.9-24.9c0,0,0,0,0,0
	c0.1-0.1,0.1-0.2,0.2-0.2c0-0.1,0.1-0.1,0.1-0.2L92.5,3c0.2-0.5,0.1-1.1-0.3-1.5c-0.4-0.4-1-0.5-1.5-0.3L72.4,9.4
	c-0.1,0-0.2,0.1-0.2,0.1c-0.1,0-0.2,0.1-0.2,0.2c0,0,0,0,0,0L47,34.6l-3.7-3.7l-4.9-4.9l4.2-4.2c0.2-0.2,0.4-0.6,0.4-0.9
	c0-0.3-0.1-0.7-0.4-0.9l-19-19c-0.5-0.5-1.3-0.5-1.9,0l-4.2,4.2l-4.9-4.9c-0.5-0.5-1.4-0.5-1.9,0L0.4,10.9c-0.5,0.5-0.5,1.3,0,1.9
	l5.8,5.8c0,0,0,0,0,0l24.8,24.8c0,0,0,0,0,0l3.7,3.7L5.1,76.5l-4.7,4.7c-0.2,0.2-0.4,0.6-0.4,0.9c0,0.4,0.1,0.7,0.4,0.9L11,93.5
	c0.3,0.3,0.6,0.4,0.9,0.4c0.3,0,0.7-0.1,0.9-0.4l4.7-4.7c0,0,0,0,0,0L47,59.4l30.9,30.9c0,0,0.1,0,0.1,0.1c0,0,0,0.1,0.1,0.1
	l5.3,5.3c0.3,0.3,0.6,0.4,0.9,0.4c0.3,0,0.7-0.1,0.9-0.4l10.5-10.5c0.2-0.2,0.4-0.6,0.4-0.9C96.1,83.9,95.9,83.6,95.7,83.3z
	 M16.6,86.1l-2.2-2.2L79.2,19l2.2,2.2L16.6,86.1z M72.8,12.5l2.2,2.2L10.2,79.7l-2.2-2.2L72.8,12.5z M86.1,11.4l-3.2,7.5l-7.8-7.8
	l7.4-3.3L86.1,11.4z M9,17.6l8.7-8.7l22.9,22.9l-8.7,8.7L9,17.6z M36.6,24.2l-2.1-2.1l3.3-3.3l2.1,2.1L36.6,24.2z M22.8,3.8
	l14.1,14.1l-3.3,3.3L19.5,7.1L22.8,3.8z M11.8,3.2l3.9,3.9l-8.7,8.7l-3.9-3.9L11.8,3.2z M33.7,42.4l8.7-8.7l2.8,2.8l-8.7,8.7
	L33.7,42.4z M3.3,82.1l2.8-2.8l8.7,8.7l-2.8,2.8L3.3,82.1z M57.5,48.9l29.9,29.9l-8.7,8.7L48.9,57.5L57.5,48.9z M84.2,92.9l-3.4-3.4
	l8.7-8.7l3.4,3.4L84.2,92.9z"/>
</svg>
